# xmcd
#
# Track frame offsets:
#	150
#	12665
#	22887
#	33820
#	44410
#	53952
#	63662
#	72367
#	82825
#	94320
#	104012
#	115645
#	124990
#	138580
#
# Disc length: 1989 seconds
#
# Revision: 0
# Processed by: cddbd v1.4PL0 Copyright (c) Steve Scherf et al.
# Submitted via: dBpowerAMP V4.0
#
DISCID=c307c30e
DTITLE=Anita Waggon Group - Country and Western Music
DYEAR=1993
DGENRE=Country
TTITLE0=Home On The Ranch
TTITLE1=A Little Touch Of You
TTITLE2=Bury Me On The Lone Pony
TTITLE3=Pretty Baby
TTITLE4=I Had A Dream
TTITLE5=In The Streets Of Laredo
TTITLE6=Oh Mary Don't You Weep
TTITLE7=I Want You Know
TTITLE8=Thank You For The Time
TTITLE9=Follow The Drinking Guard
TTITLE10=Last Night
TTITLE11=My Heart Is Lonely
TTITLE12=The Banks Of The Ohio
TTITLE13=Come And Go With Me
EXTD=
EXTT0=
EXTT1=
EXTT2=
EXTT3=
EXTT4=
EXTT5=
EXTT6=
EXTT7=
EXTT8=
EXTT9=
EXTT10=
EXTT11=
EXTT12=
EXTT13=
PLAYORDER=
